<svg width="196" height="240" xmlns="http://www.w3.org/2000/svg" viewBox="71.08 42.87 227.06 277.41" fill="currentColor"><g fill="currentColor"><g></g><g><path d="M184.64,153.73c-5.18,0-9.9-1.98-13.44-5.22l-94.79-81.44,108.3,247.87,108.09-247.85-94.8,81.49c-3.53,3.2-8.22,5.16-13.36,5.16Z" /><path d="M176.9,118.6c2.08,1.83,4.82,2.95,7.81,2.95,3.34,0,6.37-1.39,8.51-3.63l32.35-27.85c1.39-1.29,2.26-3.14,2.26-5.19,0-2.16-.97-4.1-2.5-5.4l-32.49-28.03c-2.12-2.02-4.98-3.25-8.14-3.25-2.89,0-5.54,1.04-7.59,2.76l-33.15,28.62c-1.46,1.3-2.39,3.2-2.39,5.3s.91,3.98,2.35,5.27l32.97,28.45Z" /></g></g></svg>