<svg width="240" height="105" xmlns="http://www.w3.org/2000/svg" viewBox="-20.00 -20.00 1040.00 456.27"><defs id="defs4" /><g id="layer1" transform="translate(0,-636.09514)"><path d="m 261.1136,1052.3621 -105.96054,0 12.04591,-184.16797 -68.807783,184.16797 -98.391187,0 156.11382,-416.26707 104.69763,0 -12.08838,186.68913 70.11317,-186.68913 98.39023,0 -156.11287,416.26707" style="fill:#000000;fill-opacity:1;fill-rule:nonzero;stroke:none" id="path16" /><path d="m 273.88892,1052.3621 156.11523,-416.26707 98.39026,0 -156.11523,416.26707 -98.39026,0" style="fill:#000000;fill-opacity:1;fill-rule:nonzero;stroke:none" id="path18" /><path d="M 656.4214,1024.6114 650.11636,807.64827 798.87847,644.31684 Z M 973.5618,705.4717 1000,636.09503 l -300.21523,0 -103.09483,124.88037 47.59114,-124.88037 -99.6508,0 -154.85232,416.26707 98.39024,0 66.10966,-174.07661 4.52992,174.07661 301.89831,-0.6538 28.73973,-80.07707 -114.78901,0 37.71222,-100.91368 94.60627,0 29.10564,-77.57724 -94.60629,0 32.43403,-87.66861 99.65312,0" style="fill:#000000;fill-opacity:1;fill-rule:nonzero;stroke:none" id="path28" /></g></svg>